<svg width="85" height="85" viewBox="0 0 85.1039 85.1039" fill="none" xmlns="http://www.w3.org/2000/svg">
<path fill-rule="evenodd" clip-rule="evenodd" d="M63.3333 78.1771V77.1872H21.7705V78.1771C21.7705 82.0029 18.6694 85.1039 14.8438 85.1039H6.92676C3.10124 85.1037 0 82.0028 0 78.1771V70.2601C0.000175873 66.4345 3.10135 63.3335 6.92676 63.3333H7.91669V21.7705H6.92676C3.1012 21.7703 0 18.6693 0 14.8438V6.92676C0.000175876 3.10131 3.10131 0.000175873 6.92676 0H14.8438C18.6693 0 21.7703 3.1012 21.7705 6.92676V7.91669H63.3333V6.92676C63.3335 3.10135 66.4345 0.000175869 70.2601 0H78.1771C82.0028 0 85.1037 3.10124 85.1039 6.92676V14.8438C85.1039 18.6694 82.0029 21.7705 78.1771 21.7705H77.1872V63.3333H78.1771C82.0028 63.3333 85.1037 66.4345 85.1039 70.2601V78.1771C85.1039 82.0029 82.0029 85.1039 78.1771 85.1039H70.2601C66.4345 85.1037 63.3333 82.0028 63.3333 78.1771ZM14.8438 5.9375C15.3902 5.9375 15.8328 6.38039 15.833 6.92676V14.8438C15.833 15.3903 15.3903 15.833 14.8438 15.833H6.92676C6.38039 15.8328 5.9375 15.3902 5.9375 14.8438V6.92676C5.93768 6.3805 6.3805 5.93768 6.92676 5.9375H14.8438ZM63.3333 71.2497H21.7705V70.2601C21.7703 66.4344 18.6693 63.3333 14.8438 63.3333H13.8542V21.7705H14.8438C18.6695 21.7705 21.7705 18.6695 21.7705 14.8438V13.8542H63.3333V14.8438C63.3333 18.6693 66.4344 21.7703 70.2601 21.7705H71.2497V63.3333H70.2601C66.4346 63.3335 63.3335 66.4346 63.3333 70.2601V71.2497ZM69.2708 74.1737L69.2712 74.2184L69.2708 74.2635V78.1771C69.2708 78.7236 69.7137 79.1662 70.2601 79.1664H78.1771C78.7237 79.1664 79.1664 78.7237 79.1664 78.1771V70.2601C79.1662 69.7137 78.7236 69.2708 78.1771 69.2708H74.2635L74.2184 69.2712L74.1737 69.2708H70.2601C69.7138 69.271 69.271 69.7138 69.2708 70.2601V74.1737ZM10.9305 69.2708L10.8854 69.2712L10.8403 69.2708H6.92676C6.38046 69.271 5.93768 69.7138 5.9375 70.2601V78.1771C5.9375 78.7235 6.38036 79.1662 6.92676 79.1664H14.8438C15.3903 79.1664 15.833 78.7236 15.833 78.1771L15.8337 74.2184L15.833 70.2601C15.8328 69.7137 15.3902 69.2708 14.8438 69.2708H10.9305ZM69.2708 10.8403L69.2712 10.8854L69.2708 10.9305V14.8438C69.2708 15.3902 69.7137 15.8328 70.2601 15.833L74.2184 15.8337L78.1771 15.833C78.7236 15.833 79.1664 15.3903 79.1664 14.8438V6.92676C79.1662 6.38036 78.7235 5.9375 78.1771 5.9375H70.2601C69.7138 5.93768 69.271 6.38046 69.2708 6.92676V10.8403Z" fill="#1F2538"/>
<path d="M50.3077 24.1738C48.0645 23.9286 45.4284 23.818 42.4464 23.751C42.4059 23.7501 42.3648 23.7502 42.3243 23.751C39.0984 23.8105 36.3311 23.9482 34.0206 24.2354C31.7401 24.5188 29.707 24.9691 28.0528 25.7559C26.325 26.5777 24.8956 27.8287 24.1329 29.6826C23.4085 31.4433 23.4538 33.3498 23.797 35.1817C24.0989 36.7932 25.6502 37.8556 27.2618 37.5537C28.8732 37.2517 29.9347 35.7003 29.6329 34.0889C29.3945 32.8162 29.5125 32.2104 29.6231 31.9414C29.6954 31.7657 29.8636 31.4698 30.6026 31.1182C31.4154 30.7316 32.7192 30.3807 34.753 30.1279C36.0704 29.9642 37.6134 29.8507 39.4112 29.7754V55.417H36.505C34.8655 55.4172 33.5362 56.7463 33.5362 58.3858C33.5364 60.0251 34.8656 61.3543 36.505 61.3545H48.254C49.8935 61.3545 51.2226 60.0252 51.2227 58.3858C51.2227 56.7462 49.8936 55.417 48.254 55.417H45.3487V29.7793C46.9794 29.846 48.4106 29.9394 49.6622 30.0762C51.666 30.2952 53.0118 30.6082 53.8936 30.9883C54.7127 31.3414 54.9405 31.6646 55.0411 31.877C55.1752 32.1599 55.3344 32.7978 55.1134 34.1602C54.8509 35.7784 55.9503 37.3027 57.5684 37.5654C59.1869 37.828 60.7122 36.7288 60.9747 35.1104C61.2977 33.1189 61.2537 31.1235 60.4063 29.335C59.5254 27.4758 57.9931 26.2893 56.2432 25.5352C54.5559 24.808 52.523 24.416 50.3077 24.1738Z" fill="#1F2538"/>
<path fill-rule="evenodd" clip-rule="evenodd" d="M21.7705 71.2497H63.3333V70.2601C63.3335 66.4346 66.4346 63.3335 70.2601 63.3333H71.2497V21.7705H70.2601C66.4344 21.7703 63.3333 18.6693 63.3333 14.8438V13.8542H21.7705V14.8438C21.7705 18.6695 18.6695 21.7705 14.8438 21.7705H13.8542V63.3333H14.8438C18.6693 63.3333 21.7703 66.4344 21.7705 70.2601V71.2497ZM50.3077 24.1738C48.0645 23.9286 45.4284 23.818 42.4464 23.751C42.4059 23.7501 42.3648 23.7502 42.3243 23.751C39.0984 23.8105 36.3311 23.9482 34.0206 24.2354C31.7401 24.5188 29.707 24.9691 28.0528 25.7559C26.325 26.5777 24.8956 27.8287 24.1329 29.6826C23.4085 31.4433 23.4538 33.3498 23.797 35.1817C24.0989 36.7932 25.6502 37.8556 27.2618 37.5537C28.8732 37.2517 29.9347 35.7003 29.6329 34.0889C29.3945 32.8162 29.5125 32.2104 29.6231 31.9414C29.6954 31.7657 29.8636 31.4698 30.6026 31.1182C31.4154 30.7316 32.7192 30.3807 34.753 30.1279C36.0704 29.9642 37.6134 29.8507 39.4112 29.7754V55.417H36.505C34.8655 55.4172 33.5362 56.7463 33.5362 58.3858C33.5364 60.0251 34.8656 61.3543 36.505 61.3545H48.254C49.8935 61.3545 51.2226 60.0252 51.2227 58.3858C51.2227 56.7462 49.8936 55.417 48.254 55.417H45.3487V29.7793C46.9794 29.846 48.4106 29.9394 49.6622 30.0762C51.666 30.2952 53.0118 30.6082 53.8936 30.9883C54.7127 31.3414 54.9405 31.6646 55.0411 31.877C55.1752 32.1599 55.3344 32.7978 55.1134 34.1602C54.8509 35.7784 55.9503 37.3027 57.5684 37.5654C59.1869 37.828 60.7122 36.7288 60.9747 35.1104C61.2977 33.1189 61.2537 31.1235 60.4063 29.335C59.5254 27.4758 57.9931 26.2893 56.2432 25.5352C54.5559 24.808 52.523 24.416 50.3077 24.1738Z" fill="#436AF4"/>
</svg>
