<svg width="773" height="86" viewBox="0 0 773 86" fill="none" xmlns="http://www.w3.org/2000/svg">
<path d="M767.958 31.6058C768.959 31.6058 769.667 31.7889 770.082 32.1552C770.497 32.5215 770.705 33.132 770.705 33.9868V40.9466C770.705 41.8013 770.497 42.4118 770.082 42.7781C769.667 43.1444 768.959 43.3275 767.958 43.3275C767.127 43.3275 766.541 43.0101 766.199 42.3752C765.149 40.3727 763.623 38.9685 761.62 38.1626C759.618 37.3324 757.078 36.9172 754.001 36.9172C751.633 36.9172 749.777 37.3446 748.433 38.1993C747.115 39.0296 746.455 40.2017 746.455 41.7158C746.455 42.4973 746.7 43.1322 747.188 43.6206C747.701 44.109 748.446 44.5119 749.423 44.8294C750.228 45.098 751.156 45.3056 752.206 45.4521C753.281 45.5986 754.661 45.7574 756.346 45.9283C758.714 46.1969 760.619 46.4534 762.06 46.6976C763.525 46.9173 764.905 47.2592 766.199 47.7232C768.153 48.4314 769.667 49.4571 770.741 50.8002C771.84 52.1433 772.39 53.9138 772.39 56.1116C772.39 58.3094 771.828 60.2386 770.705 61.8992C769.606 63.5354 767.982 64.8053 765.833 65.7088C763.708 66.6124 761.156 67.0641 758.177 67.0641C755.54 67.0641 753.22 66.6978 751.217 65.9652C749.215 65.2326 747.469 64.1215 745.979 62.6318V64.6832C745.979 65.5379 745.772 66.1484 745.357 66.5147C744.941 66.881 744.233 67.0641 743.232 67.0641C742.231 67.0641 741.523 66.881 741.107 66.5147C740.692 66.1484 740.485 65.5379 740.485 64.6832V55.8918C740.485 55.0371 740.692 54.4266 741.107 54.0603C741.523 53.694 742.231 53.5108 743.232 53.5108C743.745 53.5108 744.148 53.6329 744.441 53.8771C744.734 54.0969 744.99 54.4754 745.21 55.0127C746.089 57.357 747.554 59.0665 749.606 60.141C751.657 61.2155 754.392 61.7527 757.811 61.7527C760.644 61.7527 762.817 61.2399 764.331 60.2142C765.845 59.1886 766.602 57.821 766.602 56.1116C766.602 55.2813 766.334 54.5975 765.796 54.0603C765.259 53.5231 764.49 53.0835 763.489 52.7416C762.634 52.473 761.645 52.2532 760.522 52.0822C759.423 51.8869 758.018 51.7037 756.309 51.5328C754.014 51.2886 752.097 51.0322 750.558 50.7635C749.02 50.4949 747.603 50.1042 746.309 49.5914C744.526 48.8832 743.134 47.9064 742.133 46.6609C741.156 45.3911 740.668 43.7427 740.668 41.7158C740.668 39.5912 741.217 37.7719 742.316 36.2579C743.44 34.7194 744.978 33.5594 746.932 32.778C748.91 31.9965 751.144 31.6058 753.635 31.6058C756.004 31.6058 758.165 31.9599 760.119 32.6681C762.097 33.3763 763.794 34.3653 765.21 35.6351V33.9868C765.21 33.132 765.418 32.5215 765.833 32.1552C766.248 31.7889 766.956 31.6058 767.958 31.6058Z" fill="white"/>
<path d="M729.725 31.6058C730.727 31.6058 731.435 31.7889 731.85 32.1552C732.265 32.5215 732.473 33.132 732.473 33.9868V40.9466C732.473 41.8013 732.265 42.4118 731.85 42.7781C731.435 43.1444 730.727 43.3275 729.725 43.3275C728.895 43.3275 728.309 43.0101 727.967 42.3752C726.917 40.3727 725.391 38.9685 723.388 38.1626C721.386 37.3324 718.846 36.9172 715.769 36.9172C713.4 36.9172 711.545 37.3446 710.201 38.1993C708.883 39.0296 708.223 40.2017 708.223 41.7158C708.223 42.4973 708.468 43.1322 708.956 43.6206C709.469 44.109 710.214 44.5119 711.19 44.8294C711.996 45.098 712.924 45.3056 713.974 45.4521C715.049 45.5986 716.429 45.7574 718.114 45.9283C720.482 46.1969 722.387 46.4534 723.828 46.6976C725.293 46.9173 726.673 47.2592 727.967 47.7232C729.921 48.4314 731.435 49.4571 732.509 50.8002C733.608 52.1433 734.158 53.9138 734.158 56.1116C734.158 58.3094 733.596 60.2386 732.473 61.8992C731.374 63.5354 729.75 64.8053 727.601 65.7088C725.476 66.6124 722.924 67.0641 719.945 67.0641C717.308 67.0641 714.988 66.6978 712.985 65.9652C710.983 65.2326 709.237 64.1215 707.747 62.6318V64.6832C707.747 65.5379 707.54 66.1484 707.124 66.5147C706.709 66.881 706.001 67.0641 705 67.0641C703.999 67.0641 703.29 66.881 702.875 66.5147C702.46 66.1484 702.253 65.5379 702.253 64.6832V55.8918C702.253 55.0371 702.46 54.4266 702.875 54.0603C703.29 53.694 703.999 53.5108 705 53.5108C705.513 53.5108 705.916 53.6329 706.209 53.8771C706.502 54.0969 706.758 54.4754 706.978 55.0127C707.857 57.357 709.322 59.0665 711.374 60.141C713.425 61.2155 716.16 61.7527 719.579 61.7527C722.412 61.7527 724.585 61.2399 726.099 60.2142C727.613 59.1886 728.37 57.821 728.37 56.1116C728.37 55.2813 728.102 54.5975 727.564 54.0603C727.027 53.5231 726.258 53.0835 725.257 52.7416C724.402 52.473 723.413 52.2532 722.29 52.0822C721.191 51.8869 719.786 51.7037 718.077 51.5328C715.781 51.2886 713.864 51.0322 712.326 50.7635C710.788 50.4949 709.371 50.1042 708.077 49.5914C706.294 48.8832 704.902 47.9064 703.901 46.6609C702.924 45.3911 702.436 43.7427 702.436 41.7158C702.436 39.5912 702.985 37.7719 704.084 36.2579C705.207 34.7194 706.746 33.5594 708.7 32.778C710.678 31.9965 712.912 31.6058 715.403 31.6058C717.772 31.6058 719.933 31.9599 721.887 32.6681C723.865 33.3763 725.562 34.3653 726.978 35.6351V33.9868C726.978 33.132 727.186 32.5215 727.601 32.1552C728.016 31.7889 728.724 31.6058 729.725 31.6058Z" fill="white"/>
<path d="M677.101 31.6058C681.692 31.6058 685.136 32.6314 687.431 34.6827C689.727 36.7341 690.874 39.7744 690.874 43.8037V58.3827C690.874 60.3119 691.68 61.2765 693.292 61.2765H694.574C695.404 61.2765 695.99 61.4719 696.332 61.8626C696.699 62.2289 696.882 62.8638 696.882 63.7674C696.882 64.6709 696.699 65.3181 696.332 65.7088C695.99 66.0751 695.404 66.2583 694.574 66.2583H692.23C690.642 66.2583 689.275 65.8675 688.127 65.0861C687.004 64.2802 686.271 63.108 685.929 61.5696C683.927 63.3278 681.753 64.6832 679.409 65.6356C677.089 66.5879 674.623 67.0641 672.01 67.0641C669.543 67.0641 667.358 66.649 665.453 65.8187C663.572 64.964 662.095 63.7308 661.02 62.119C659.946 60.5073 659.409 58.5903 659.409 56.368C659.409 52.5096 660.788 49.6646 663.548 47.8331C666.307 45.9772 669.873 45.0492 674.244 45.0492C678.127 45.0492 681.839 45.6719 685.38 46.9173V43.8037C685.38 41.435 684.708 39.7011 683.365 38.6022C682.046 37.4789 679.91 36.9172 676.955 36.9172C675.123 36.9172 673.218 37.1736 671.24 37.6864C669.262 38.1993 667.382 38.9075 665.599 39.811C665.184 40.0308 664.806 40.1407 664.464 40.1407C663.658 40.1407 662.986 39.5546 662.449 38.3824C662.18 37.7963 662.046 37.3079 662.046 36.9172C662.046 36.0625 662.498 35.4031 663.401 34.9392C665.453 33.8647 667.651 33.0466 669.995 32.4849C672.364 31.8988 674.733 31.6058 677.101 31.6058ZM674.281 50.2141C671.472 50.2141 669.25 50.7025 667.614 51.6793C666.002 52.6317 665.196 54.158 665.196 56.2581C665.196 58.0408 665.807 59.4328 667.028 60.434C668.273 61.4108 670.007 61.8992 672.229 61.8992C677.089 61.8992 681.473 59.8846 685.38 55.8552V51.8625C683.719 51.3252 681.937 50.9223 680.032 50.6537C678.127 50.3606 676.21 50.2141 674.281 50.2141Z" fill="white"/>
<path d="M640.675 18.199C641.505 18.199 642.091 18.3943 642.433 18.7851C642.8 19.1514 642.983 19.7863 642.983 20.6899V61.2765H654.741C655.571 61.2765 656.158 61.4719 656.499 61.8626C656.866 62.2289 657.049 62.8638 657.049 63.7674C657.049 64.6709 656.866 65.3181 656.499 65.7088C656.158 66.0751 655.571 66.2583 654.741 66.2583H626.023C625.192 66.2583 624.594 66.0751 624.228 65.7088C623.886 65.3181 623.715 64.6709 623.715 63.7674C623.715 62.8638 623.886 62.2289 624.228 61.8626C624.594 61.4719 625.192 61.2765 626.023 61.2765H637.488V23.1807H627.488C626.658 23.1807 626.059 22.9976 625.693 22.6313C625.351 22.2405 625.18 21.5934 625.18 20.6899C625.18 19.7863 625.351 19.1514 625.693 18.7851C626.059 18.3943 626.658 18.199 627.488 18.199H640.675Z" fill="white"/>
<path d="M615.593 21.9719C616.595 21.9719 617.303 22.1551 617.718 22.5214C618.133 22.8877 618.341 23.4982 618.341 24.3529V36.441C618.341 37.2957 618.133 37.9062 617.718 38.2725C617.303 38.6388 616.595 38.822 615.593 38.822C614.592 38.822 613.884 38.6388 613.469 38.2725C613.054 37.9062 612.846 37.2957 612.846 36.441C612.846 34.7804 612.467 33.2663 611.71 31.8988C610.978 30.5313 609.842 29.4446 608.304 28.6387C606.765 27.8084 604.861 27.3932 602.589 27.3932C599.952 27.3932 597.608 28.0892 595.556 29.4812C593.529 30.8731 591.942 32.8634 590.794 35.452C589.671 38.0405 589.109 41.0686 589.109 44.5363C589.109 48.004 589.647 51.0322 590.721 53.6207C591.796 56.1849 593.322 58.1629 595.3 59.5549C597.278 60.9468 599.586 61.6428 602.223 61.6428C604.641 61.6428 606.948 61.2887 609.146 60.5805C611.344 59.8723 613.322 58.8467 615.08 57.5036C615.496 57.1617 615.947 56.9907 616.436 56.9907C617.168 56.9907 617.816 57.4669 618.377 58.4193C618.817 59.1519 619.037 59.7991 619.037 60.3607C619.037 61.0933 618.658 61.7283 617.901 62.2655C615.63 63.8528 613.151 65.0494 610.465 65.8553C607.803 66.6612 605.056 67.0641 602.223 67.0641C598.414 67.0641 595.08 66.1362 592.223 64.2802C589.39 62.3998 587.192 59.7624 585.63 56.368C584.091 52.9736 583.322 49.0297 583.322 44.5363C583.322 40.0674 584.115 36.1357 585.703 32.7413C587.29 29.3225 589.512 26.6728 592.37 24.7925C595.251 22.9121 598.536 21.9719 602.223 21.9719C604.519 21.9719 606.558 22.3627 608.34 23.1441C610.123 23.9256 611.625 25.0367 612.846 26.4775V24.3529C612.846 23.4982 613.054 22.8877 613.469 22.5214C613.884 22.1551 614.592 21.9719 615.593 21.9719Z" fill="white"/>
<path d="M543.48 31.6094C545.873 31.6094 548.083 32.1467 550.11 33.2212C552.137 34.2957 553.92 35.8342 555.458 37.8366V34.9062C555.458 34.0026 555.629 33.3677 555.971 33.0014C556.337 32.6107 556.936 32.4153 557.766 32.4153H563.59C564.42 32.4153 565.007 32.6107 565.348 33.0014C565.715 33.3677 565.898 34.0026 565.898 34.9062C565.898 35.8097 565.715 36.4569 565.348 36.8476C565.007 37.2139 564.42 37.3971 563.59 37.3971H560.586V67.3608C560.586 70.2669 559.964 72.7578 558.718 74.8335C557.497 76.9336 555.715 78.5332 553.37 79.6321C551.026 80.731 548.205 81.2805 544.909 81.2805C542.564 81.2805 540.195 81.0729 537.802 80.6577C535.409 80.267 533.175 79.6931 531.099 78.9361C530.146 78.5942 529.67 77.9471 529.67 76.9947C529.67 76.604 529.768 76.1156 529.963 75.5295C530.403 74.1863 531.099 73.5148 532.051 73.5148C532.32 73.5148 532.588 73.5636 532.857 73.6613C534.762 74.3451 536.764 74.8823 538.865 75.273C540.965 75.6638 542.979 75.8591 544.909 75.8591C548.279 75.8591 550.818 75.0533 552.528 73.4415C554.237 71.8542 555.092 69.6686 555.092 66.8847V59.5219C552.064 63.3315 548.193 65.2363 543.48 65.2363C540.452 65.2363 537.741 64.5647 535.348 63.2216C532.955 61.8541 531.074 59.9004 529.707 57.3607C528.339 54.821 527.656 51.8417 527.656 48.4229C527.656 45.004 528.339 42.0247 529.707 39.485C531.074 36.9453 532.955 35.0039 535.348 33.6607C537.741 32.2932 540.452 31.6094 543.48 31.6094ZM543.846 37.0308C541.673 37.0308 539.805 37.5192 538.242 38.496C536.679 39.4484 535.482 40.7915 534.652 42.5253C533.846 44.2348 533.443 46.2006 533.443 48.4229C533.443 50.6451 533.846 52.6232 534.652 54.357C535.482 56.0664 536.679 57.4095 538.242 58.3864C539.805 59.3388 541.673 59.815 543.846 59.815C546.02 59.815 547.949 59.3632 549.634 58.4596C551.343 57.5561 552.674 56.2496 553.627 54.5402C554.603 52.8063 555.092 50.7672 555.092 48.4229C555.092 46.0785 554.603 44.0516 553.627 42.3422C552.674 40.6083 551.343 39.2896 549.634 38.3861C547.949 37.4825 546.02 37.0308 543.846 37.0308Z" fill="white"/>
<path d="M507.402 31.6094C509.624 31.6094 511.553 32.0978 513.189 33.0747C514.826 34.0271 516.083 35.4068 516.962 37.2139C517.842 39.021 518.281 41.1334 518.281 43.551V61.2802H521.285C522.115 61.2802 522.701 61.4755 523.043 61.8663C523.409 62.2326 523.592 62.8675 523.592 63.7711C523.592 64.6746 523.409 65.3218 523.043 65.7125C522.701 66.0788 522.115 66.2619 521.285 66.2619H509.416C508.586 66.2619 507.988 66.0788 507.622 65.7125C507.28 65.3218 507.109 64.6746 507.109 63.7711C507.109 62.8675 507.28 62.2326 507.622 61.8663C507.988 61.4755 508.586 61.2802 509.416 61.2802H512.786V44.1005C512.786 41.927 512.286 40.2054 511.285 38.9355C510.283 37.6657 508.806 37.0308 506.852 37.0308C504.777 37.0308 502.835 37.6291 501.028 38.8257C499.245 40.0223 497.817 41.6706 496.742 43.7708C495.668 45.8709 495.131 48.2153 495.131 50.8038V61.2802H498.501C499.331 61.2802 499.917 61.4755 500.259 61.8663C500.625 62.2326 500.808 62.8675 500.808 63.7711C500.808 64.6746 500.625 65.3218 500.259 65.7125C499.917 66.0788 499.331 66.2619 498.501 66.2619H486.632C485.802 66.2619 485.204 66.0788 484.837 65.7125C484.495 65.3218 484.325 64.6746 484.325 63.7711C484.325 62.8675 484.495 62.2326 484.837 61.8663C485.204 61.4755 485.802 61.2802 486.632 61.2802H489.636V37.3971H485.9C485.069 37.3971 484.471 37.2139 484.105 36.8476C483.763 36.4569 483.592 35.8097 483.592 34.9062C483.592 34.0026 483.763 33.3677 484.105 33.0014C484.471 32.6107 485.069 32.4153 485.9 32.4153H492.457C493.287 32.4153 493.873 32.6107 494.215 33.0014C494.581 33.3677 494.764 34.0026 494.764 34.9062V39.3019C496.376 36.811 498.256 34.9062 500.405 33.5875C502.579 32.2688 504.911 31.6094 507.402 31.6094Z" fill="white"/>
<path d="M463.349 32.4153C464.179 32.4153 464.766 32.6107 465.107 33.0014C465.474 33.3677 465.657 34.0027 465.657 34.9062V61.2802H477.415C478.246 61.2802 478.832 61.4756 479.174 61.8663C479.54 62.2326 479.723 62.8675 479.723 63.7711C479.723 64.6746 479.54 65.3218 479.174 65.7125C478.832 66.0788 478.246 66.262 477.415 66.262H448.697C447.867 66.262 447.268 66.0788 446.902 65.7125C446.56 65.3218 446.389 64.6746 446.389 63.7711C446.389 62.8675 446.56 62.2326 446.902 61.8663C447.268 61.4756 447.867 61.2802 448.697 61.2802H460.162V37.3971H450.895C450.064 37.3971 449.466 37.2139 449.1 36.8476C448.758 36.4569 448.587 35.8098 448.587 34.9062C448.587 34.0027 448.758 33.3677 449.1 33.0014C449.466 32.6107 450.064 32.4153 450.895 32.4153H463.349ZM462.177 16.3345C463.52 16.3345 464.436 16.5177 464.924 16.884C465.413 17.2259 465.657 17.8364 465.657 18.7155V23.4775C465.657 24.3566 465.413 24.9793 464.924 25.3456C464.436 25.6875 463.52 25.8585 462.177 25.8585C460.834 25.8585 459.918 25.6875 459.43 25.3456C458.941 24.9793 458.697 24.3566 458.697 23.4775V18.7155C458.697 17.8364 458.941 17.2259 459.43 16.884C459.918 16.5177 460.834 16.3345 462.177 16.3345Z" fill="white"/>
<path d="M418.084 21.9756C419.085 21.9756 419.793 22.1588 420.209 22.5251C420.624 22.8914 420.831 23.5019 420.831 24.3566V35.3458H435.886C436.717 35.3458 437.303 35.5412 437.645 35.9319C438.011 36.2982 438.194 36.9331 438.194 37.8367C438.194 38.7402 438.011 39.3874 437.645 39.7781C437.303 40.1444 436.717 40.3276 435.886 40.3276H420.831V53.6611C420.831 56.445 421.307 58.4841 422.26 59.7784C423.237 61.0727 424.922 61.7198 427.315 61.7198C428.951 61.7198 430.673 61.3901 432.48 60.7308C434.287 60.0714 436.033 59.1923 437.718 58.0934C438.06 57.8492 438.438 57.7271 438.853 57.7271C439.684 57.7271 440.392 58.2887 440.978 59.4121C441.295 60.047 441.454 60.5965 441.454 61.0604C441.454 61.8419 441.051 62.4768 440.245 62.9652C438.341 64.1618 436.216 65.1508 433.872 65.9323C431.527 66.6893 429.342 67.0678 427.315 67.0678C423.163 67.0678 420.123 65.9934 418.194 63.8444C416.289 61.6709 415.337 58.4352 415.337 54.1373V40.3276H407.901C407.07 40.3276 406.472 40.1444 406.106 39.7781C405.764 39.3874 405.593 38.7402 405.593 37.8367C405.593 36.9331 405.764 36.2982 406.106 35.9319C406.472 35.5412 407.07 35.3458 407.901 35.3458H415.337V24.3566C415.337 23.5019 415.544 22.8914 415.959 22.5251C416.375 22.1588 417.083 21.9756 418.084 21.9756Z" fill="white"/>
<path d="M388.885 32.4153C389.715 32.4153 390.301 32.6107 390.643 33.0014C391.009 33.3677 391.193 34.0027 391.193 34.9062V61.2802H402.951C403.781 61.2802 404.367 61.4756 404.709 61.8663C405.076 62.2326 405.259 62.8675 405.259 63.7711C405.259 64.6746 405.076 65.3218 404.709 65.7125C404.367 66.0788 403.781 66.262 402.951 66.262H374.233C373.402 66.262 372.804 66.0788 372.438 65.7125C372.096 65.3218 371.925 64.6746 371.925 63.7711C371.925 62.8675 372.096 62.2326 372.438 61.8663C372.804 61.4756 373.402 61.2802 374.233 61.2802H385.698V37.3971H376.431C375.6 37.3971 375.002 37.2139 374.636 36.8476C374.294 36.4569 374.123 35.8098 374.123 34.9062C374.123 34.0027 374.294 33.3677 374.636 33.0014C375.002 32.6107 375.6 32.4153 376.431 32.4153H388.885ZM387.713 16.3345C389.056 16.3345 389.972 16.5177 390.46 16.884C390.948 17.2259 391.193 17.8364 391.193 18.7155V23.4775C391.193 24.3566 390.948 24.9793 390.46 25.3456C389.972 25.6875 389.056 25.8585 387.713 25.8585C386.37 25.8585 385.454 25.6875 384.965 25.3456C384.477 24.9793 384.233 24.3566 384.233 23.4775V18.7155C384.233 17.8364 384.477 17.2259 384.965 16.884C385.454 16.5177 386.37 16.3345 387.713 16.3345Z" fill="white"/>
<path d="M360.543 31.6094C362.448 31.6094 364.23 32.0978 365.891 33.0747C366.868 33.6607 367.356 34.4178 367.356 35.3458C367.356 35.7853 367.246 36.2981 367.027 36.8842C366.514 38.2762 365.806 38.9722 364.902 38.9722C364.536 38.9722 364.194 38.8745 363.876 38.6791C362.68 38.0198 361.398 37.6901 360.03 37.6901C357.832 37.6901 355.622 38.4593 353.4 39.9978C351.178 41.5119 349.346 43.5388 347.905 46.0785C346.489 48.6182 345.781 51.3167 345.781 54.1739V61.2802H358.125C358.956 61.2802 359.542 61.4755 359.884 61.8663C360.25 62.2326 360.433 62.8675 360.433 63.7711C360.433 64.6746 360.25 65.3218 359.884 65.7125C359.542 66.0788 358.956 66.2619 358.125 66.2619H334.535C333.705 66.2619 333.107 66.0788 332.74 65.7125C332.399 65.3218 332.228 64.6746 332.228 63.7711C332.228 62.8675 332.399 62.2326 332.74 61.8663C333.107 61.4755 333.705 61.2802 334.535 61.2802H340.286V37.3971H335.634C334.804 37.3971 334.206 37.2139 333.839 36.8476C333.497 36.4569 333.327 35.8097 333.327 34.9062C333.327 34.0026 333.497 33.3677 333.839 33.0014C334.206 32.6107 334.804 32.4153 335.634 32.4153H343.107C343.937 32.4153 344.523 32.6107 344.865 33.0014C345.231 33.3677 345.415 34.0026 345.415 34.9062V42.3056C346.587 40.1566 348.003 38.2762 349.664 36.6645C351.324 35.0527 353.095 33.8073 354.975 32.9281C356.856 32.049 358.712 31.6094 360.543 31.6094Z" fill="white"/>
<path d="M324.652 32.4153C325.482 32.4153 326.068 32.6107 326.41 33.0014C326.776 33.3677 326.959 34.0027 326.959 34.9062C326.959 35.8098 326.776 36.4569 326.41 36.8476C326.068 37.2139 325.482 37.3971 324.652 37.3971H323.773L316.556 64.6869C316.312 65.566 315.946 66.1765 315.457 66.5184C314.993 66.8847 314.297 67.0678 313.369 67.0678C312.319 67.0678 311.489 66.8725 310.879 66.4818C310.293 66.1154 309.853 65.5171 309.56 64.6869L303.955 48.7892L298.278 64.6869C297.985 65.5171 297.521 66.1154 296.886 66.4818C296.275 66.8725 295.445 67.0678 294.395 67.0678C293.467 67.0678 292.771 66.8847 292.307 66.5184C291.843 66.1765 291.501 65.566 291.281 64.6869L284.212 37.3971H283.552C282.722 37.3971 282.124 37.2139 281.757 36.8476C281.415 36.4569 281.245 35.8098 281.245 34.9062C281.245 34.0027 281.415 33.3677 281.757 33.0014C282.124 32.6107 282.722 32.4153 283.552 32.4153H294.322C295.152 32.4153 295.738 32.6107 296.08 33.0014C296.446 33.3677 296.629 34.0027 296.629 34.9062C296.629 35.8098 296.446 36.4569 296.08 36.8476C295.738 37.2139 295.152 37.3971 294.322 37.3971H289.816L295.091 58.7161L301.208 41.7195C301.379 41.2067 301.697 40.7915 302.161 40.4741C302.625 40.1566 303.235 39.9979 303.992 39.9979C305.531 39.9979 306.471 40.4863 306.813 41.4631L312.893 58.7161L318.315 37.3971H314.615C313.785 37.3971 313.186 37.2139 312.82 36.8476C312.478 36.4569 312.307 35.8098 312.307 34.9062C312.307 34.0027 312.478 33.3677 312.82 33.0014C313.186 32.6107 313.785 32.4153 314.615 32.4153H324.652Z" fill="white"/>
<path d="M260.2 31.6094C263.74 31.6094 266.756 32.3298 269.247 33.7706C271.763 35.187 273.692 37.1651 275.035 39.7048C276.378 42.2201 277.147 45.1261 277.343 48.4229C277.343 49.2531 277.159 49.8392 276.793 50.1811C276.451 50.523 275.865 50.694 275.035 50.694H248.514C248.685 54.3326 249.76 57.0921 251.738 58.9725C253.74 60.8284 256.561 61.7564 260.2 61.7564C262.446 61.7564 264.668 61.4755 266.866 60.9139C269.064 60.3278 270.993 59.5585 272.654 58.6061C273.069 58.3864 273.448 58.2765 273.789 58.2765C274.644 58.2765 275.34 58.9236 275.877 60.2179C276.097 60.7307 276.207 61.1947 276.207 61.6099C276.207 62.5867 275.67 63.3437 274.595 63.8809C272.715 64.8333 270.493 65.6026 267.929 66.1887C265.364 66.7748 262.788 67.0678 260.2 67.0678C256.512 67.0678 253.362 66.3596 250.749 64.9432C248.136 63.5269 246.146 61.4878 244.778 58.8259C243.411 56.1641 242.727 53.0017 242.727 49.3386C242.727 45.8465 243.472 42.7573 244.961 40.0711C246.451 37.3849 248.514 35.3091 251.152 33.8439C253.789 32.3543 256.805 31.6094 260.2 31.6094ZM260.2 36.9209C257.196 36.9209 254.705 37.6901 252.727 39.2286C250.773 40.7427 249.491 42.855 248.881 45.5657H271.262C270.749 42.7573 269.565 40.6206 267.709 39.1553C265.877 37.6657 263.374 36.9209 260.2 36.9209Z" fill="white"/>
<path d="M220.652 31.6094C223.681 31.6094 226.391 32.3298 228.784 33.7706C231.178 35.187 233.058 37.2383 234.426 39.9246C235.793 42.5864 236.477 45.7244 236.477 49.3386C236.477 52.9528 235.793 56.1031 234.426 58.7893C233.058 61.4511 231.178 63.5024 228.784 64.9432C226.391 66.3596 223.681 67.0678 220.652 67.0678C216.061 67.0678 212.191 65.0531 209.041 61.0238V75.4928H215.341C216.171 75.4928 216.757 75.676 217.099 76.0423C217.466 76.433 217.649 77.0802 217.649 77.9837C217.649 78.8873 217.466 79.5222 217.099 79.8885C216.757 80.2792 216.171 80.4746 215.341 80.4746H199.81C198.979 80.4746 198.381 80.2792 198.015 79.8885C197.673 79.5222 197.502 78.8873 197.502 77.9837C197.502 77.0802 197.673 76.433 198.015 76.0423C198.381 75.676 198.979 75.4928 199.81 75.4928H203.546V37.3971H200.542C199.712 37.3971 199.114 37.2139 198.747 36.8476C198.405 36.4569 198.235 35.8097 198.235 34.9062C198.235 34.0026 198.405 33.3677 198.747 33.0014C199.114 32.6107 199.712 32.4153 200.542 32.4153H206.367C207.197 32.4153 207.783 32.6107 208.125 33.0014C208.491 33.3677 208.674 34.0026 208.674 34.9062V37.8366C210.213 35.8342 211.995 34.2957 214.022 33.2212C216.049 32.1467 218.259 31.6094 220.652 31.6094ZM220.286 37.0308C218.113 37.0308 216.171 37.5192 214.462 38.496C212.777 39.4728 211.446 40.8892 210.469 42.7451C209.517 44.6011 209.041 46.7989 209.041 49.3386C209.041 51.8783 209.517 54.0762 210.469 55.9321C211.446 57.7881 212.777 59.2044 214.462 60.1813C216.171 61.1581 218.113 61.6465 220.286 61.6465C222.46 61.6465 224.328 61.1337 225.891 60.108C227.453 59.0579 228.638 57.6049 229.444 55.749C230.274 53.893 230.689 51.7562 230.689 49.3386C230.689 46.921 230.274 44.7842 229.444 42.9283C228.638 41.0723 227.453 39.6315 225.891 38.6059C224.328 37.5558 222.46 37.0308 220.286 37.0308Z" fill="white"/>
<path d="M191.758 32.4153C192.588 32.4153 193.174 32.6107 193.516 33.0014C193.882 33.3677 194.065 34.0027 194.065 34.9062C194.065 35.8098 193.882 36.4569 193.516 36.8476C193.174 37.2139 192.588 37.3971 191.758 37.3971H189.486L174.505 68.0935C172.917 71.3414 171.367 73.8933 169.852 75.7493C168.338 77.6052 166.629 78.9606 164.724 79.8153C162.844 80.6944 160.548 81.1828 157.838 81.2805C156.983 81.3049 156.324 81.0851 155.86 80.6211C155.396 80.1816 155.164 79.3879 155.164 78.2402C155.164 76.6528 155.811 75.8225 157.105 75.7493C159.449 75.6272 161.305 75.2365 162.673 74.5771C164.065 73.9178 165.335 72.7822 166.482 71.1705C167.655 69.5831 169.083 67.0923 170.768 63.6978L157.361 37.3971H155.054C154.223 37.3971 153.625 37.2139 153.259 36.8476C152.917 36.4569 152.746 35.8098 152.746 34.9062C152.746 34.0027 152.917 33.3677 153.259 33.0014C153.625 32.6107 154.223 32.4153 155.054 32.4153H168.021C168.851 32.4153 169.437 32.6107 169.779 33.0014C170.146 33.3677 170.329 34.0027 170.329 34.9062C170.329 35.8098 170.146 36.4569 169.779 36.8476C169.437 37.2139 168.851 37.3971 168.021 37.3971H163.332L173.662 57.9835L183.516 37.3971H180.256C179.425 37.3971 178.827 37.2139 178.461 36.8476C178.119 36.4569 177.948 35.8098 177.948 34.9062C177.948 34.0027 178.119 33.3677 178.461 33.0014C178.827 32.6107 179.425 32.4153 180.256 32.4153H191.758Z" fill="white"/>
<path d="M144.888 22.7815C145.718 22.7815 146.304 22.9769 146.646 23.3676C147.013 23.7339 147.196 24.3688 147.196 25.2724V39.0821C147.196 39.9368 146.988 40.5473 146.573 40.9136C146.158 41.2799 145.45 41.4631 144.448 41.4631C143.447 41.4631 142.739 41.2799 142.324 40.9136C141.909 40.5473 141.701 39.9368 141.701 39.0821V27.7632H131.921V61.2802H140.566C141.396 61.2802 141.982 61.4756 142.324 61.8663C142.69 62.2326 142.873 62.8675 142.873 63.7711C142.873 64.6746 142.69 65.3218 142.324 65.7125C141.982 66.0788 141.396 66.262 140.566 66.262H117.781C116.951 66.262 116.353 66.0788 115.987 65.7125C115.645 65.3218 115.474 64.6746 115.474 63.7711C115.474 62.8675 115.645 62.2326 115.987 61.8663C116.353 61.4756 116.951 61.2802 117.781 61.2802H126.426V27.7632H116.646V39.0821C116.646 39.9368 116.438 40.5473 116.023 40.9136C115.608 41.2799 114.9 41.4631 113.899 41.4631C112.897 41.4631 112.189 41.2799 111.774 40.9136C111.359 40.5473 111.151 39.9368 111.151 39.0821V25.2724C111.151 24.3688 111.322 23.7339 111.664 23.3676C112.03 22.9769 112.629 22.7815 113.459 22.7815H144.888Z" fill="white"/>
<path fill-rule="evenodd" clip-rule="evenodd" d="M63.3333 78.1771V77.1872H21.7705V78.1771C21.7705 82.0029 18.6694 85.1039 14.8438 85.1039H6.92676C3.10124 85.1037 0 82.0028 0 78.1771V70.2601C0.000175873 66.4345 3.10135 63.3335 6.92676 63.3333H7.91669V21.7705H6.92676C3.1012 21.7703 0 18.6693 0 14.8438V6.92676C0.000175876 3.10131 3.10131 0.000175873 6.92676 0H14.8438C18.6693 0 21.7703 3.1012 21.7705 6.92676V7.91669H63.3333V6.92676C63.3335 3.10135 66.4345 0.000175869 70.2601 0H78.1771C82.0028 0 85.1037 3.10124 85.1039 6.92676V14.8438C85.1039 18.6694 82.0029 21.7705 78.1771 21.7705H77.1872V63.3333H78.1771C82.0028 63.3333 85.1037 66.4345 85.1039 70.2601V78.1771C85.1039 82.0029 82.0029 85.1039 78.1771 85.1039H70.2601C66.4345 85.1037 63.3333 82.0028 63.3333 78.1771ZM14.8438 5.9375C15.3902 5.9375 15.8328 6.38039 15.833 6.92676V14.8438C15.833 15.3903 15.3903 15.833 14.8438 15.833H6.92676C6.38039 15.8328 5.9375 15.3902 5.9375 14.8438V6.92676C5.93768 6.3805 6.3805 5.93768 6.92676 5.9375H14.8438ZM63.3333 71.2497H21.7705V70.2601C21.7703 66.4344 18.6693 63.3333 14.8438 63.3333H13.8542V21.7705H14.8438C18.6695 21.7705 21.7705 18.6695 21.7705 14.8438V13.8542H63.3333V14.8438C63.3333 18.6693 66.4344 21.7703 70.2601 21.7705H71.2497V63.3333H70.2601C66.4346 63.3335 63.3335 66.4346 63.3333 70.2601V71.2497ZM69.2708 74.1737L69.2712 74.2184L69.2708 74.2635V78.1771C69.2708 78.7236 69.7137 79.1662 70.2601 79.1664H78.1771C78.7237 79.1664 79.1664 78.7237 79.1664 78.1771V70.2601C79.1662 69.7137 78.7236 69.2708 78.1771 69.2708H74.2635L74.2184 69.2712L74.1737 69.2708H70.2601C69.7138 69.271 69.271 69.7138 69.2708 70.2601V74.1737ZM10.9305 69.2708L10.8854 69.2712L10.8403 69.2708H6.92676C6.38046 69.271 5.93768 69.7138 5.9375 70.2601V78.1771C5.9375 78.7235 6.38036 79.1662 6.92676 79.1664H14.8438C15.3903 79.1664 15.833 78.7236 15.833 78.1771L15.8337 74.2184L15.833 70.2601C15.8328 69.7137 15.3902 69.2708 14.8438 69.2708H10.9305ZM69.2708 10.8403L69.2712 10.8854L69.2708 10.9305V14.8438C69.2708 15.3902 69.7137 15.8328 70.2601 15.833L74.2184 15.8337L78.1771 15.833C78.7236 15.833 79.1664 15.3903 79.1664 14.8438V6.92676C79.1662 6.38036 78.7235 5.9375 78.1771 5.9375H70.2601C69.7138 5.93768 69.271 6.38046 69.2708 6.92676V10.8403Z" fill="white"/>
<path d="M50.3077 24.1738C48.0645 23.9286 45.4284 23.818 42.4464 23.751C42.4059 23.7501 42.3648 23.7502 42.3243 23.751C39.0984 23.8105 36.3311 23.9482 34.0206 24.2354C31.7401 24.5188 29.707 24.9691 28.0528 25.7559C26.325 26.5777 24.8956 27.8287 24.1329 29.6826C23.4085 31.4433 23.4538 33.3498 23.797 35.1817C24.0989 36.7932 25.6502 37.8556 27.2618 37.5537C28.8732 37.2517 29.9347 35.7003 29.6329 34.0889C29.3945 32.8162 29.5125 32.2104 29.6231 31.9414C29.6954 31.7657 29.8636 31.4698 30.6026 31.1182C31.4154 30.7316 32.7192 30.3807 34.753 30.1279C36.0704 29.9642 37.6134 29.8507 39.4112 29.7754V55.417H36.505C34.8655 55.4172 33.5362 56.7463 33.5362 58.3858C33.5364 60.0251 34.8656 61.3543 36.505 61.3545H48.254C49.8935 61.3545 51.2226 60.0252 51.2227 58.3858C51.2227 56.7462 49.8936 55.417 48.254 55.417H45.3487V29.7793C46.9794 29.846 48.4106 29.9394 49.6622 30.0762C51.666 30.2952 53.0118 30.6082 53.8936 30.9883C54.7127 31.3414 54.9405 31.6646 55.0411 31.877C55.1752 32.1599 55.3344 32.7978 55.1134 34.1602C54.8509 35.7784 55.9503 37.3027 57.5684 37.5654C59.1869 37.828 60.7122 36.7288 60.9747 35.1104C61.2977 33.1189 61.2537 31.1235 60.4063 29.335C59.5254 27.4758 57.9931 26.2893 56.2432 25.5352C54.5559 24.808 52.523 24.416 50.3077 24.1738Z" fill="#1F2538"/>
<path fill-rule="evenodd" clip-rule="evenodd" d="M21.7705 71.2497H63.3333V70.2601C63.3335 66.4346 66.4346 63.3335 70.2601 63.3333H71.2497V21.7705H70.2601C66.4344 21.7703 63.3333 18.6693 63.3333 14.8438V13.8542H21.7705V14.8438C21.7705 18.6695 18.6695 21.7705 14.8438 21.7705H13.8542V63.3333H14.8438C18.6693 63.3333 21.7703 66.4344 21.7705 70.2601V71.2497ZM50.3077 24.1738C48.0645 23.9286 45.4284 23.818 42.4464 23.751C42.4059 23.7501 42.3648 23.7502 42.3243 23.751C39.0984 23.8105 36.3311 23.9482 34.0206 24.2354C31.7401 24.5188 29.707 24.9691 28.0528 25.7559C26.325 26.5777 24.8956 27.8287 24.1329 29.6826C23.4085 31.4433 23.4538 33.3498 23.797 35.1817C24.0989 36.7932 25.6502 37.8556 27.2618 37.5537C28.8732 37.2517 29.9347 35.7003 29.6329 34.0889C29.3945 32.8162 29.5125 32.2104 29.6231 31.9414C29.6954 31.7657 29.8636 31.4698 30.6026 31.1182C31.4154 30.7316 32.7192 30.3807 34.753 30.1279C36.0704 29.9642 37.6134 29.8507 39.4112 29.7754V55.417H36.505C34.8655 55.4172 33.5362 56.7463 33.5362 58.3858C33.5364 60.0251 34.8656 61.3543 36.505 61.3545H48.254C49.8935 61.3545 51.2226 60.0252 51.2227 58.3858C51.2227 56.7462 49.8936 55.417 48.254 55.417H45.3487V29.7793C46.9794 29.846 48.4106 29.9394 49.6622 30.0762C51.666 30.2952 53.0118 30.6082 53.8936 30.9883C54.7127 31.3414 54.9405 31.6646 55.0411 31.877C55.1752 32.1599 55.3344 32.7978 55.1134 34.1602C54.8509 35.7784 55.9503 37.3027 57.5684 37.5654C59.1869 37.828 60.7122 36.7288 60.9747 35.1104C61.2977 33.1189 61.2537 31.1235 60.4063 29.335C59.5254 27.4758 57.9931 26.2893 56.2432 25.5352C54.5559 24.808 52.523 24.416 50.3077 24.1738Z" fill="#436AF4"/>
<path fill-rule="evenodd" clip-rule="evenodd" d="M69.2712 74.2184L69.2708 74.1737V70.2601C69.271 69.7138 69.7138 69.271 70.2601 69.2708H74.1737L74.2184 69.2712L74.2635 69.2708H78.1771C78.7236 69.2708 79.1662 69.7137 79.1664 70.2601V78.1771C79.1664 78.7237 78.7237 79.1664 78.1771 79.1664H70.2601C69.7137 79.1662 69.2708 78.7236 69.2708 78.1771V74.2635L69.2712 74.2184Z" fill="#1F2538"/>
<path fill-rule="evenodd" clip-rule="evenodd" d="M69.2712 10.8854L69.2708 10.8403V6.92676C69.271 6.38046 69.7138 5.93768 70.2601 5.9375H78.1771C78.7235 5.9375 79.1662 6.38036 79.1664 6.92676V14.8438C79.1664 15.3903 78.7236 15.833 78.1771 15.833L74.2184 15.8337L70.2601 15.833C69.7137 15.8328 69.2708 15.3902 69.2708 14.8438V10.9305L69.2712 10.8854Z" fill="#1F2538"/>
<path fill-rule="evenodd" clip-rule="evenodd" d="M15.833 6.92676C15.8328 6.38039 15.3902 5.9375 14.8438 5.9375H6.92676C6.3805 5.93768 5.93768 6.3805 5.9375 6.92676V14.8438C5.9375 15.3902 6.38039 15.8328 6.92676 15.833H14.8438C15.3903 15.833 15.833 15.3903 15.833 14.8438V6.92676Z" fill="#1F2538"/>
<path fill-rule="evenodd" clip-rule="evenodd" d="M10.8854 69.2712L10.9305 69.2708H14.8438C15.3902 69.2708 15.8328 69.7137 15.833 70.2601L15.8337 74.2184L15.833 78.1771C15.833 78.7236 15.3903 79.1664 14.8438 79.1664H6.92676C6.38036 79.1662 5.9375 78.7235 5.9375 78.1771V70.2601C5.93768 69.7138 6.38046 69.271 6.92676 69.2708H10.8403L10.8854 69.2712Z" fill="#1F2538"/>
</svg>
